# xmcd CD database file
#
# Track frame offsets:
#	150
#	22023
#	45328
#	74405
#	87648
#	114933
#	135015
#	157495
#	188560
#	211115
#	239240
#
# Disc length: 3499 seconds
#
# Revision: 0
# Processed by: cddbd v1.5PL3 Copyright (c) Steve Scherf et al.
# Submitted via: CDex 1.51
#
DISCID=960da90b
DTITLE=Hank Jones - Arigato
DYEAR=1976
DGENRE=Jazz
TTITLE0=Allen's Alley
TTITLE1=I'm old fashioned
TTITLE2=Night sadness (Notte Trieste)
TTITLE3=Arigato
TTITLE4=Recapitulation
TTITLE5=Night flight to Puerto Rico
TTITLE6=Double deal
TTITLE7=Majorca
TTITLE8=What am I here for ?
TTITLE9=Medley: The bad and the beautiful - But beautiful - You are too beautiful
TTITLE10=Gerry's blues
EXTD=YEAR: 1976
EXTT0=
EXTT1=
EXTT2=
EXTT3=
EXTT4=
EXTT5=
EXTT6=
EXTT7=
EXTT8=
EXTT9=
EXTT10=
PLAYORDER=
